<svg width="228" height="75" viewBox="0 0 228 75" fill="none" xmlns="http://www.w3.org/2000/svg">
<g filter="url(#filter0_d_5_10)">
<path d="M59.7188 47.3438L53.25 48.625L46.9688 9.40625L36.6562 43.375L28.9062 44.2812L17.2188 11.3125L11.5625 47.1562L4.96875 46.25L13.625 0.6875H20.0938L32.6875 36.7188L43.9062 1.0625L51.25 0.875L59.7188 47.3438ZM94.7188 14.375C93.6146 17.625 92.6042 20.5938 91.6875 23.2812C90.7917 25.9688 89.9792 28.3958 89.25 30.5625C88.5208 32.7292 87.8646 34.6562 87.2812 36.3438C86.6979 38.0312 86.1875 39.5104 85.75 40.7812C84.7292 43.7604 83.9271 46.0521 83.3438 47.6562C82.9271 48.8854 82.4375 50.1875 81.875 51.5625C81.3333 52.9583 80.6562 54.3438 79.8438 55.7188C79.0521 57.0938 78.1146 58.4167 77.0312 59.6875C75.9688 60.9792 74.7188 62.125 73.2812 63.125C71.8646 64.1458 70.2396 64.9792 68.4062 65.625C66.5729 66.2708 64.5104 66.6458 62.2188 66.75L61 60.6562C62.2917 60.8229 63.5 60.7812 64.625 60.5312C65.7708 60.3021 66.8229 59.9271 67.7812 59.4062C68.7604 58.9062 69.6562 58.2917 70.4688 57.5625C71.3021 56.8333 72.0521 56.0625 72.7188 55.25C73.4062 54.4375 74.0104 53.6042 74.5312 52.75C75.0521 51.9167 75.5104 51.1354 75.9062 50.4062L62.7188 15.4062L69.875 14.4375L79.0938 41.9688C79.5938 40.4271 80.1771 38.6146 80.8438 36.5312C81.5312 34.4271 82.25 32.1667 83 29.75C83.7708 27.3333 84.5625 24.8125 85.375 22.1875C86.1875 19.5417 86.9792 16.9167 87.75 14.3125L94.7188 14.375ZM136.375 46.7188L102.312 49.0625L102.125 1.53125L108.594 1.1875L108.406 42.2188L136.062 40.0625L136.375 46.7188ZM166.625 47.9688L167.062 43.5625C164.521 45.1875 162.021 46.3646 159.562 47.0938C157.125 47.8229 154.844 48.1875 152.719 48.1875C151.219 48.1875 149.76 47.9896 148.344 47.5938C146.948 47.2188 145.708 46.6354 144.625 45.8438C143.562 45.0312 142.698 44.0104 142.031 42.7812C141.385 41.5312 141.062 40.0625 141.062 38.375C141.062 36.6875 141.312 35.1771 141.812 33.8438C142.312 32.5104 143 31.3333 143.875 30.3125C144.75 29.2917 145.781 28.4167 146.969 27.6875C148.156 26.9583 149.427 26.3646 150.781 25.9062C152.156 25.4479 153.594 25.1146 155.094 24.9062C156.594 24.6771 158.083 24.5625 159.562 24.5625C160.938 24.5625 162.219 24.6146 163.406 24.7188C164.594 24.8229 165.646 24.9583 166.562 25.125C166.292 24.0833 165.958 23.0625 165.562 22.0625C165.167 21.0417 164.656 20.1354 164.031 19.3438C163.427 18.5312 162.677 17.875 161.781 17.375C160.885 16.875 159.812 16.625 158.562 16.625C157.75 16.625 156.823 16.75 155.781 17C154.74 17.2292 153.594 17.6562 152.344 18.2812C151.094 18.9062 149.729 19.7708 148.25 20.875C146.771 21.9583 145.188 23.3542 143.5 25.0625L139.719 20.4688C141.719 18.5938 143.635 17.0625 145.469 15.875C147.302 14.6875 149.021 13.7604 150.625 13.0938C152.25 12.4062 153.75 11.9375 155.125 11.6875C156.521 11.4375 157.771 11.3125 158.875 11.3125C160.792 11.3125 162.5 11.6458 164 12.3125C165.5 12.9583 166.812 13.8542 167.938 15C169.083 16.125 170.042 17.4583 170.812 19C171.604 20.5208 172.25 22.1667 172.75 23.9375C173.25 25.6875 173.604 27.5104 173.812 29.4062C174.042 31.3021 174.156 33.1875 174.156 35.0625C174.156 37.0625 174.042 39.2083 173.812 41.5C173.583 43.7917 173.229 46.2917 172.75 49L166.625 47.9688ZM167.5 36.5938C167.542 35.5521 167.573 34.5208 167.594 33.5C167.615 32.4792 167.562 31.4167 167.438 30.3125C166.417 30 165.344 29.75 164.219 29.5625C163.094 29.375 161.969 29.2812 160.844 29.2812C158.969 29.2812 157.146 29.5 155.375 29.9375C153.625 30.375 152.115 31.0104 150.844 31.8438C149.573 32.6771 148.615 33.6979 147.969 34.9062C147.344 36.1146 147.219 37.4896 147.594 39.0312C147.885 40.2812 148.448 41.1562 149.281 41.6562C150.135 42.1562 151.156 42.4062 152.344 42.4062C153.552 42.4062 154.854 42.2083 156.25 41.8125C157.667 41.3958 159.062 40.8958 160.438 40.3125C161.833 39.7083 163.146 39.0729 164.375 38.4062C165.604 37.7396 166.646 37.1354 167.5 36.5938ZM223.781 14.4375L217.562 47.0938L208.281 47.3438L202.781 24.375L195.219 46.25L185.875 46.9688L179.812 14.5625L186.25 14.0625L191 40.3125L200.281 14.0625L206.281 14.4375L212.625 41L216.844 14.1875L223.781 14.4375Z" fill="#FF7A01"/>
<path d="M59.7188 47.3438L59.913 48.3247L60.8791 48.1333L60.7025 47.1645L59.7188 47.3438ZM53.25 48.625L52.2626 48.7831L52.4266 49.8075L53.4443 49.6059L53.25 48.625ZM46.9688 9.40625L47.9562 9.24811L46.0119 9.11575L46.9688 9.40625ZM36.6562 43.375L36.7724 44.3682L37.4229 44.2922L37.6131 43.6655L36.6562 43.375ZM28.9062 44.2812L27.9637 44.6154L28.2302 45.3671L29.0224 45.2745L28.9062 44.2812ZM17.2188 11.3125L18.1613 10.9784L16.231 11.1566L17.2188 11.3125ZM11.5625 47.1562L11.4263 48.1469L12.3975 48.2804L12.5503 47.3121L11.5625 47.1562ZM4.96875 46.25L3.98632 46.0634L3.78987 47.0974L4.83259 47.2407L4.96875 46.25ZM13.625 0.6875V-0.3125H12.7971L12.6426 0.500851L13.625 0.6875ZM20.0938 0.6875L21.0377 0.357552L20.8036 -0.3125H20.0938V0.6875ZM32.6875 36.7188L31.7435 37.0487L32.7374 39.8922L33.6414 37.0189L32.6875 36.7188ZM43.9062 1.0625L43.8807 0.0628242L43.1667 0.0810547L42.9524 0.762367L43.9062 1.0625ZM51.25 0.875L52.2338 0.695705L52.0803 -0.146526L51.2245 -0.124676L51.25 0.875ZM59.5245 46.3628L53.0557 47.6441L53.4443 49.6059L59.913 48.3247L59.5245 46.3628ZM54.2374 48.4669L47.9562 9.24811L45.9813 9.56439L52.2626 48.7831L54.2374 48.4669ZM46.0119 9.11575L35.6994 43.0845L37.6131 43.6655L47.9256 9.69675L46.0119 9.11575ZM36.5401 42.3818L28.7901 43.288L29.0224 45.2745L36.7724 44.3682L36.5401 42.3818ZM29.8488 43.9471L18.1613 10.9784L16.2762 11.6466L27.9637 44.6154L29.8488 43.9471ZM16.231 11.1566L10.5747 47.0004L12.5503 47.3121L18.2065 11.4684L16.231 11.1566ZM11.6987 46.1656L5.10491 45.2593L4.83259 47.2407L11.4263 48.1469L11.6987 46.1656ZM5.95118 46.4366L14.6074 0.874149L12.6426 0.500851L3.98632 46.0634L5.95118 46.4366ZM13.625 1.6875H20.0938V-0.3125H13.625V1.6875ZM19.1498 1.01745L31.7435 37.0487L33.6315 36.3888L21.0377 0.357552L19.1498 1.01745ZM33.6414 37.0189L44.8601 1.36263L42.9524 0.762367L31.7336 36.4186L33.6414 37.0189ZM43.9318 2.06218L51.2755 1.87468L51.2245 -0.124676L43.8807 0.0628242L43.9318 2.06218ZM50.2662 1.05429L58.735 47.523L60.7025 47.1645L52.2338 0.695705L50.2662 1.05429ZM94.7188 14.375L95.6656 14.6967L96.1104 13.3874L94.7277 13.375L94.7188 14.375ZM91.6875 23.2812L90.741 22.9584L90.7388 22.965L91.6875 23.2812ZM85.75 40.7812L84.8045 40.4557L84.804 40.4571L85.75 40.7812ZM83.3438 47.6562L82.404 47.3145L82.4002 47.3248L82.3967 47.3352L83.3438 47.6562ZM81.875 51.5625L80.9495 51.1839L80.946 51.1923L80.9427 51.2007L81.875 51.5625ZM79.8438 55.7188L78.9828 55.21L78.9771 55.2198L79.8438 55.7188ZM77.0312 59.6875L76.2702 59.0388L76.2645 59.0454L76.259 59.0522L77.0312 59.6875ZM73.2812 63.125L72.7102 62.3041L72.7034 62.3088L72.6966 62.3137L73.2812 63.125ZM68.4062 65.625L68.074 64.6818L68.4062 65.625ZM62.2188 66.75L61.2382 66.9461L61.4065 67.7879L62.2642 67.749L62.2188 66.75ZM61 60.6562L61.128 59.6645L59.7462 59.4862L60.0194 60.8524L61 60.6562ZM64.625 60.5312L64.4289 59.5507L64.4185 59.5528L64.4081 59.5551L64.625 60.5312ZM67.7812 59.4062L67.3265 58.5156L67.315 58.5215L67.3037 58.5276L67.7812 59.4062ZM70.4688 57.5625L69.8102 56.8099L69.8008 56.8183L70.4688 57.5625ZM72.7188 55.25L71.9554 54.6041L71.9505 54.6098L71.9457 54.6157L72.7188 55.25ZM74.5312 52.75L73.6832 52.22L73.6775 52.2294L74.5312 52.75ZM75.9062 50.4062L76.7851 50.8833L77.0032 50.4815L76.842 50.0537L75.9062 50.4062ZM62.7188 15.4062L62.5846 14.4153L61.3402 14.5837L61.783 15.7588L62.7188 15.4062ZM69.875 14.4375L70.8232 14.12L70.5606 13.3356L69.7409 13.4465L69.875 14.4375ZM79.0938 41.9688L78.1455 42.2863L79.1089 45.1634L80.045 42.2773L79.0938 41.9688ZM80.8438 36.5312L79.8932 36.2207L79.8913 36.2265L80.8438 36.5312ZM83 29.75L82.0473 29.4461L82.0449 29.4536L83 29.75ZM85.375 22.1875L86.3303 22.4832L86.3309 22.4811L85.375 22.1875ZM87.75 14.3125L87.759 13.3125L87.0051 13.3058L86.7911 14.0287L87.75 14.3125ZM93.7719 14.0533C92.6678 17.303 91.6576 20.2714 90.741 22.9584L92.634 23.6041C93.5508 20.9161 94.5613 17.947 95.6656 14.6967L93.7719 14.0533ZM90.7388 22.965C89.8432 25.6518 89.031 28.078 88.3022 30.2435L90.1978 30.8815C90.9273 28.7137 91.7401 26.2857 92.6362 23.5975L90.7388 22.965ZM88.3022 30.2435C87.5737 32.4083 86.9184 34.3327 86.3361 36.017L88.2264 36.6705C88.8108 34.9798 89.468 33.05 90.1978 30.8815L88.3022 30.2435ZM86.3361 36.017C85.7527 37.7048 85.2421 39.1844 84.8045 40.4557L86.6955 41.1068C87.1329 39.8364 87.6431 38.3577 88.2264 36.6705L86.3361 36.017ZM84.804 40.4571C83.7838 43.4344 82.9841 45.7191 82.404 47.3145L84.2835 47.998C84.8701 46.385 85.6745 44.0864 86.696 41.1054L84.804 40.4571ZM82.3967 47.3352C81.9875 48.5424 81.5053 49.8252 80.9495 51.1839L82.8005 51.9411C83.3697 50.5498 83.8667 49.2284 84.2908 47.9773L82.3967 47.3352ZM80.9427 51.2007C80.4221 52.5425 79.7694 53.8789 78.9828 55.21L80.7047 56.2275C81.5431 54.8086 82.2446 53.3742 82.8073 51.9243L80.9427 51.2007ZM78.9771 55.2198C78.2176 56.539 77.3159 57.8121 76.2702 59.0388L77.7923 60.3362C78.9132 59.0212 79.8866 57.6485 80.7104 56.2177L78.9771 55.2198ZM76.259 59.0522C75.2574 60.2698 74.076 61.354 72.7102 62.3041L73.8523 63.9459C75.3615 62.896 76.6801 61.6885 77.8035 60.3228L76.259 59.0522ZM72.6966 62.3137C71.3656 63.2729 69.8274 64.0641 68.074 64.6818L68.7385 66.5682C70.6518 65.8942 72.3636 65.0188 73.8659 63.9363L72.6966 62.3137ZM68.074 64.6818C66.3479 65.2899 64.3843 65.6505 62.1733 65.751L62.2642 67.749C64.6365 67.6411 66.7979 67.2518 68.7385 66.5682L68.074 64.6818ZM63.1993 66.5539L61.9806 60.4601L60.0194 60.8524L61.2382 66.9461L63.1993 66.5539ZM60.872 61.648C62.2639 61.8276 63.59 61.7856 64.8419 61.5074L64.4081 59.5551C63.41 59.7769 62.3194 59.8182 61.128 59.6645L60.872 61.648ZM64.8211 61.5118C66.0583 61.2644 67.2062 60.8569 68.2588 60.2849L67.3037 58.5276C66.4396 58.9973 65.4833 59.3398 64.4289 59.5507L64.8211 61.5118ZM68.236 60.2969C69.2917 59.7578 70.2593 59.0941 71.1367 58.3067L69.8008 56.8183C69.0532 57.4892 68.2291 58.0547 67.3265 58.5156L68.236 60.2969ZM71.1273 58.3151C71.9998 57.5516 72.7885 56.7415 73.4918 55.8843L71.9457 54.6157C71.3157 55.3835 70.6044 56.115 69.8102 56.8099L71.1273 58.3151ZM73.4821 55.8959C74.2009 55.0465 74.8357 54.1715 75.385 53.2706L73.6775 52.2294C73.1851 53.0368 72.6116 53.8285 71.9554 54.6041L73.4821 55.8959ZM75.3792 53.28C75.909 52.4324 76.378 51.6334 76.7851 50.8833L75.0274 49.9292C74.6429 50.6375 74.1952 51.4009 73.6833 52.22L75.3792 53.28ZM76.842 50.0537L63.6545 15.0537L61.783 15.7588L74.9705 50.7588L76.842 50.0537ZM62.8529 16.3972L70.0091 15.4285L69.7409 13.4465L62.5846 14.4153L62.8529 16.3972ZM68.9268 14.755L78.1455 42.2863L80.042 41.6512L70.8232 14.12L68.9268 14.755ZM80.045 42.2773C80.5455 40.734 81.1292 38.9202 81.7962 36.836L79.8913 36.2265C79.2249 38.309 78.642 40.1202 78.1425 41.6602L80.045 42.2773ZM81.7943 36.8418C82.4835 34.7323 83.2038 32.4671 83.9551 30.0464L82.0449 29.4536C81.2962 31.8662 80.579 34.1218 79.8932 36.2207L81.7943 36.8418ZM83.9527 30.0539C84.7245 27.6343 85.517 25.1107 86.3303 22.4832L84.4197 21.8918C83.608 24.5143 82.8172 27.0324 82.0473 29.4461L83.9527 30.0539ZM86.3309 22.4811C87.1444 19.832 87.9371 17.2038 88.7089 14.5963L86.7911 14.0287C86.0213 16.6295 85.2306 19.2513 84.4191 21.8939L86.3309 22.4811ZM87.741 15.3125L94.7098 15.375L94.7277 13.375L87.759 13.3125L87.741 15.3125ZM136.375 46.7188L136.444 47.7164L137.42 47.6492L137.374 46.6719L136.375 46.7188ZM102.312 49.0625L101.313 49.0664L101.317 50.1334L102.381 50.0601L102.312 49.0625ZM102.125 1.53125L102.072 0.532658L101.121 0.583179L101.125 1.53519L102.125 1.53125ZM108.594 1.1875L109.594 1.19207L109.599 0.13269L108.541 0.188908L108.594 1.1875ZM108.406 42.2188L107.406 42.2142L107.401 43.3001L108.484 43.2157L108.406 42.2188ZM136.062 40.0625L137.061 40.0156L137.013 38.9854L135.985 39.0655L136.062 40.0625ZM136.306 45.7211L102.244 48.0649L102.381 50.0601L136.444 47.7164L136.306 45.7211ZM103.312 49.0586L103.125 1.52731L101.125 1.53519L101.313 49.0664L103.312 49.0586ZM102.178 2.52984L108.647 2.18609L108.541 0.188908L102.072 0.532658L102.178 2.52984ZM107.594 1.18293L107.406 42.2142L109.406 42.2233L109.594 1.19207L107.594 1.18293ZM108.484 43.2157L136.14 41.0595L135.985 39.0655L108.329 41.2218L108.484 43.2157ZM135.064 40.1094L135.376 46.7656L137.374 46.6719L137.061 40.0156L135.064 40.1094ZM166.625 47.9688L165.63 47.8699L165.538 48.7997L166.459 48.9549L166.625 47.9688ZM167.062 43.5625L168.058 43.6613L168.261 41.6091L166.524 42.72L167.062 43.5625ZM159.562 47.0938L159.278 46.135L159.276 46.1357L159.562 47.0938ZM148.344 47.5938L148.613 46.6306L148.603 46.628L148.344 47.5938ZM144.625 45.8438L144.018 46.6381L144.026 46.6447L144.035 46.6511L144.625 45.8438ZM142.031 42.7812L141.143 43.2403L141.147 43.2492L141.152 43.258L142.031 42.7812ZM143.875 30.3125L143.116 29.6617L143.875 30.3125ZM150.781 25.9062L150.465 24.9576L150.461 24.959L150.781 25.9062ZM155.094 24.9062L155.231 25.8968L155.245 25.8948L155.094 24.9062ZM166.562 25.125L166.384 26.1089L167.924 26.389L167.53 24.8734L166.562 25.125ZM165.562 22.0625L164.63 22.424L164.633 22.4305L165.562 22.0625ZM164.031 19.3438L163.229 19.9405L163.237 19.952L163.246 19.9634L164.031 19.3438ZM155.781 17L155.996 17.9766L156.005 17.9746L156.015 17.9724L155.781 17ZM148.25 20.875L148.841 21.6818L148.848 21.6764L148.25 20.875ZM143.5 25.0625L142.728 25.698L143.432 26.5539L144.211 25.7653L143.5 25.0625ZM139.719 20.4688L139.035 19.7392L138.351 20.3804L138.947 21.1043L139.719 20.4688ZM150.625 13.0938L151.009 14.0172L151.015 14.0147L150.625 13.0938ZM155.125 11.6875L154.949 10.7032L154.946 10.7036L155.125 11.6875ZM164 12.3125L163.594 13.2264L163.605 13.231L164 12.3125ZM167.938 15L167.224 15.7006L167.23 15.7071L167.237 15.7136L167.938 15ZM170.812 19L169.918 19.4472L169.922 19.4545L169.925 19.4617L170.812 19ZM172.75 23.9375L171.788 24.2092L171.788 24.2122L172.75 23.9375ZM173.812 29.4062L172.818 29.5155L172.82 29.5263L173.812 29.4062ZM172.75 49L172.584 49.9861L173.562 50.1508L173.735 49.1742L172.75 49ZM167.5 36.5938L168.036 37.4383L168.478 37.1575L168.499 36.6337L167.5 36.5938ZM167.438 30.3125L168.431 30.2L168.357 29.5483L167.73 29.3563L167.438 30.3125ZM155.375 29.9375L155.135 28.9667L155.132 28.9674L155.375 29.9375ZM147.969 34.9062L147.087 34.4348L147.081 34.4468L147.969 34.9062ZM147.594 39.0312L148.568 38.804L148.565 38.7949L147.594 39.0312ZM149.281 41.6562L148.767 42.5138L148.776 42.5193L149.281 41.6562ZM156.25 41.8125L156.523 42.7746L156.532 42.7719L156.25 41.8125ZM160.438 40.3125L160.828 41.2331L160.835 41.2302L160.438 40.3125ZM164.375 38.4062L163.898 37.5272L164.375 38.4062ZM167.62 48.0676L168.058 43.6613L166.067 43.4637L165.63 47.8699L167.62 48.0676ZM166.524 42.72C164.048 44.3032 161.633 45.4367 159.278 46.135L159.847 48.0525C162.409 47.2925 164.994 46.0718 167.601 44.405L166.524 42.72ZM159.276 46.1357C156.914 46.8424 154.73 47.1875 152.719 47.1875V49.1875C154.958 49.1875 157.336 48.8035 159.849 48.0518L159.276 46.1357ZM152.719 47.1875C151.308 47.1875 149.94 47.0015 148.613 46.6306L148.075 48.5569C149.581 48.9777 151.13 49.1875 152.719 49.1875V47.1875ZM148.603 46.628C147.317 46.2825 146.191 45.7499 145.215 45.0364L144.035 46.6511C145.225 47.521 146.579 48.155 148.084 48.5595L148.603 46.628ZM145.232 45.0494C144.287 44.3263 143.513 43.4156 142.91 42.3045L141.152 43.258C141.883 44.6052 142.838 45.7362 144.018 46.6381L145.232 45.0494ZM142.92 42.3222C142.36 41.2398 142.062 39.9344 142.062 38.375H140.062C140.062 40.1906 140.41 41.8227 141.143 43.2403L142.92 42.3222ZM142.062 38.375C142.062 36.7857 142.298 35.3973 142.749 34.1949L140.876 33.4926C140.327 34.9569 140.062 36.5893 140.062 38.375H142.062ZM142.749 34.1949C143.21 32.9645 143.84 31.8902 144.634 30.9633L143.116 29.6617C142.16 30.7765 141.415 32.0563 140.876 33.4926L142.749 34.1949ZM144.634 30.9633C145.439 30.0243 146.39 29.2164 147.492 28.5397L146.445 26.8353C145.173 27.6169 144.061 28.559 143.116 29.6617L144.634 30.9633ZM147.492 28.5397C148.614 27.8507 149.817 27.2884 151.102 26.8535L150.461 24.959C149.037 25.4407 147.698 26.066 146.445 26.8353L147.492 28.5397ZM151.097 26.8549C152.412 26.4168 153.789 26.097 155.231 25.8967L154.956 23.9158C153.398 24.1321 151.901 24.479 150.465 24.9576L151.097 26.8549ZM155.245 25.8948C156.696 25.673 158.135 25.5625 159.562 25.5625V23.5625C158.031 23.5625 156.491 23.6811 154.943 23.9177L155.245 25.8948ZM159.562 25.5625C160.913 25.5625 162.164 25.6137 163.319 25.7149L163.494 23.7226C162.273 23.6155 160.962 23.5625 159.562 23.5625V25.5625ZM163.319 25.7149C164.484 25.8171 165.504 25.949 166.384 26.1089L166.741 24.1411C165.787 23.9677 164.704 23.8287 163.494 23.7226L163.319 25.7149ZM167.53 24.8734C167.249 23.7922 166.903 22.7325 166.492 21.6945L164.633 22.4305C165.013 23.3925 165.334 24.3745 165.595 25.3766L167.53 24.8734ZM166.495 21.701C166.066 20.5951 165.508 19.6004 164.816 18.7241L163.246 19.9634C163.805 20.6705 164.267 21.4882 164.63 22.424L166.495 21.701ZM164.834 18.747C164.144 17.8196 163.286 17.0697 162.269 16.5018L161.294 18.2482C162.068 18.6803 162.71 19.2429 163.229 19.9405L164.834 18.747ZM162.269 16.5018C161.195 15.9023 159.946 15.625 158.562 15.625V17.625C159.679 17.625 160.576 17.8477 161.294 18.2482L162.269 16.5018ZM158.562 15.625C157.651 15.625 156.643 15.7647 155.548 16.0276L156.015 17.9724C157.003 17.7353 157.849 17.625 158.562 17.625V15.625ZM155.566 16.0234C154.424 16.2747 153.199 16.7356 151.897 17.3868L152.791 19.1757C153.989 18.5769 155.055 18.1836 155.996 17.9766L155.566 16.0234ZM151.897 17.3868C150.58 18.0452 149.164 18.9446 147.652 20.0736L148.848 21.6764C150.294 20.5971 151.608 19.7673 152.791 19.1757L151.897 17.3868ZM147.659 20.0682C146.126 21.1909 144.503 22.6245 142.789 24.3597L144.211 25.7653C145.872 24.0839 147.415 22.7258 148.841 21.6818L147.659 20.0682ZM144.272 24.427L140.491 19.8332L138.947 21.1043L142.728 25.698L144.272 24.427ZM140.403 21.1983C142.37 19.3542 144.24 17.8625 146.012 16.7143L144.925 15.0357C143.031 16.2625 141.068 17.8333 139.035 19.7392L140.403 21.1983ZM146.012 16.7143C147.807 15.5517 149.472 14.6557 151.009 14.0172L150.241 12.1703C148.569 12.8652 146.797 13.8233 144.925 15.0357L146.012 16.7143ZM151.015 14.0147C152.589 13.3488 154.017 12.9053 155.304 12.6714L154.946 10.7036C153.483 10.9697 151.911 11.4637 150.235 12.1728L151.015 14.0147ZM155.301 12.6718C156.654 12.4295 157.844 12.3125 158.875 12.3125V10.3125C157.698 10.3125 156.387 10.4455 154.949 10.7032L155.301 12.6718ZM158.875 12.3125C160.675 12.3125 162.241 12.6252 163.594 13.2263L164.406 11.3987C162.759 10.6665 160.908 10.3125 158.875 10.3125V12.3125ZM163.605 13.231C164.987 13.8264 166.191 14.6489 167.224 15.7006L168.651 14.2994C167.434 13.0594 166.013 12.0903 164.395 11.394L163.605 13.231ZM167.237 15.7136C168.298 16.7556 169.193 17.9972 169.918 19.4472L171.707 18.5528C170.89 16.9195 169.868 15.4944 168.638 14.2864L167.237 15.7136ZM169.925 19.4617C170.683 20.9177 171.305 22.4994 171.788 24.2092L173.712 23.6658C173.195 21.834 172.525 20.1239 171.7 18.5383L169.925 19.4617ZM171.788 24.2122C172.272 25.9056 172.616 27.673 172.818 29.5155L174.807 29.297C174.592 27.3479 174.228 25.4694 173.712 23.6628L171.788 24.2122ZM172.82 29.5263C173.044 31.383 173.156 33.2283 173.156 35.0625H175.156C175.156 33.1467 175.039 31.2212 174.805 29.2862L172.82 29.5263ZM173.156 35.0625C173.156 37.0247 173.044 39.1371 172.817 41.4005L174.808 41.5995C175.04 39.2796 175.156 37.1003 175.156 35.0625H173.156ZM172.817 41.4005C172.591 43.6629 172.241 46.1376 171.765 48.8258L173.735 49.1742C174.217 46.4457 174.575 43.9204 174.808 41.5995L172.817 41.4005ZM172.916 48.0139L166.791 46.9826L166.459 48.9549L172.584 49.9861L172.916 48.0139ZM168.499 36.6337C168.541 35.5857 168.573 34.5479 168.594 33.5204L166.594 33.4796C166.573 34.4938 166.542 35.5185 166.501 36.5538L168.499 36.6337ZM168.594 33.5204C168.615 32.4515 168.561 31.3445 168.431 30.2L166.444 30.425C166.564 31.4889 166.614 32.5068 166.594 33.4796L168.594 33.5204ZM167.73 29.3563C166.665 29.0301 165.549 28.7703 164.383 28.5761L164.054 30.5489C165.139 30.7297 166.169 30.9699 167.145 31.2687L167.73 29.3563ZM164.383 28.5761C163.205 28.3797 162.025 28.2812 160.844 28.2812V30.2812C161.913 30.2812 162.983 30.3703 164.054 30.5489L164.383 28.5761ZM160.844 28.2812C158.89 28.2812 156.987 28.5093 155.135 28.9667L155.615 30.9083C157.305 30.4907 159.047 30.2812 160.844 30.2812V28.2812ZM155.132 28.9674C153.294 29.4271 151.676 30.1024 150.295 31.0075L151.392 32.68C152.554 31.9184 153.956 31.3229 155.618 30.9076L155.132 28.9674ZM150.295 31.0075C148.9 31.9224 147.82 33.0633 147.087 34.4349L148.851 35.3776C149.409 34.3325 150.246 33.4318 151.392 32.68L150.295 31.0075ZM147.081 34.4468C146.327 35.9043 146.2 37.5328 146.622 39.2676L148.565 38.7949C148.237 37.4464 148.361 36.3248 148.857 35.3657L147.081 34.4468ZM146.62 39.2585C146.953 40.684 147.634 41.834 148.767 42.5137L149.796 40.7988C149.262 40.4785 148.818 39.8785 148.568 38.804L146.62 39.2585ZM148.776 42.5193C149.812 43.1254 151.014 43.4062 152.344 43.4062V41.4062C151.298 41.4062 150.459 41.1871 149.786 40.7932L148.776 42.5193ZM152.344 43.4062C153.661 43.4062 155.055 43.1907 156.523 42.7746L155.977 40.8504C154.653 41.226 153.444 41.4062 152.344 41.4062V43.4062ZM156.532 42.7719C157.986 42.3442 159.418 41.8312 160.828 41.2331L160.047 39.3919C158.707 39.9604 157.347 40.4474 155.968 40.8531L156.532 42.7719ZM160.835 41.2302C162.255 40.6153 163.595 39.9672 164.852 39.2853L163.898 37.5272C162.697 38.1787 161.411 38.8013 160.04 39.3948L160.835 41.2302ZM164.852 39.2853C166.094 38.6115 167.157 37.9957 168.036 37.4383L166.964 35.7492C166.135 36.2751 165.114 36.8676 163.898 37.5272L164.852 39.2853ZM223.781 14.4375L224.764 14.6246L224.982 13.4801L223.817 13.4381L223.781 14.4375ZM217.562 47.0938L217.589 48.0934L218.394 48.0717L218.545 47.2808L217.562 47.0938ZM208.281 47.3438L207.309 47.5766L207.498 48.3652L208.308 48.3434L208.281 47.3438ZM202.781 24.375L203.754 24.1421L202.956 20.8096L201.836 24.0483L202.781 24.375ZM195.219 46.25L195.295 47.2471L195.95 47.1967L196.164 46.5767L195.219 46.25ZM185.875 46.9688L184.892 47.1526L185.057 48.0346L185.952 47.9658L185.875 46.9688ZM179.812 14.5625L179.735 13.5655L178.625 13.6517L178.83 14.7464L179.812 14.5625ZM186.25 14.0625L187.234 13.8844L187.073 12.9956L186.173 13.0655L186.25 14.0625ZM191 40.3125L190.016 40.4906L190.687 44.198L191.943 40.6459L191 40.3125ZM200.281 14.0625L200.344 13.0644L199.59 13.0174L199.338 13.7292L200.281 14.0625ZM206.281 14.4375L207.254 14.2052L207.082 13.4856L206.344 13.4394L206.281 14.4375ZM212.625 41L211.652 41.2323L213.613 41.1554L212.625 41ZM216.844 14.1875L216.88 13.1881L215.994 13.1562L215.856 14.0321L216.844 14.1875ZM222.799 14.2504L216.58 46.9067L218.545 47.2808L224.764 14.6246L222.799 14.2504ZM217.536 46.0941L208.254 46.3441L208.308 48.3434L217.589 48.0934L217.536 46.0941ZM209.254 47.1109L203.754 24.1421L201.809 24.6079L207.309 47.5766L209.254 47.1109ZM201.836 24.0483L194.274 45.9233L196.164 46.5767L203.726 24.7017L201.836 24.0483ZM195.142 45.2529L185.798 45.9717L185.952 47.9658L195.295 47.2471L195.142 45.2529ZM186.858 46.7849L180.795 14.3786L178.83 14.7464L184.892 47.1526L186.858 46.7849ZM179.89 15.5595L186.327 15.0595L186.173 13.0655L179.735 13.5655L179.89 15.5595ZM185.266 14.2406L190.016 40.4906L191.984 40.1344L187.234 13.8844L185.266 14.2406ZM191.943 40.6459L201.224 14.3958L199.338 13.7292L190.057 39.9791L191.943 40.6459ZM200.219 15.0606L206.219 15.4356L206.344 13.4394L200.344 13.0644L200.219 15.0606ZM205.309 14.6698L211.652 41.2323L213.598 40.7677L207.254 14.2052L205.309 14.6698ZM213.613 41.1554L217.832 14.3429L215.856 14.0321L211.637 40.8446L213.613 41.1554ZM216.808 15.1869L223.745 15.4369L223.817 13.4381L216.88 13.1881L216.808 15.1869Z" fill="black"/>
</g>
<defs>
<filter id="filter0_d_5_10" x="0.96875" y="0.6875" width="226.812" height="74.0625" filterUnits="userSpaceOnUse" color-interpolation-filters="sRGB">
<feFlood flood-opacity="0" result="BackgroundImageFix"/>
<feColorMatrix in="SourceAlpha" type="matrix" values="0 0 0 0 0 0 0 0 0 0 0 0 0 0 0 0 0 0 127 0" result="hardAlpha"/>
<feOffset dy="4"/>
<feGaussianBlur stdDeviation="2"/>
<feComposite in2="hardAlpha" operator="out"/>
<feColorMatrix type="matrix" values="0 0 0 0 0 0 0 0 0 0 0 0 0 0 0 0 0 0 0.25 0"/>
<feBlend mode="normal" in2="BackgroundImageFix" result="effect1_dropShadow_5_10"/>
<feBlend mode="normal" in="SourceGraphic" in2="effect1_dropShadow_5_10" result="shape"/>
</filter>
</defs>
</svg>
