<svg width="105" height="106" viewBox="0 0 105 106" fill="none" xmlns="http://www.w3.org/2000/svg">
<rect width="105" height="106" fill="#BDBDBD"/>
<g id="home.38degrees.org.uk by html.to.design &#226;&#157;&#164;&#239;&#184;&#143; FREE version - 23/09/2023, 19:09:45 GMT+6">
<rect width="1920" height="4683.88" transform="translate(-375 -726)" fill="white"/>
<g id="div.stats">
<g id="div.container">
<rect id="div.bshadow" x="10" y="-14.22" width="1150" height="174.3" rx="8" fill="#F8F1EA"/>
<g id="div.statcontainer" filter="url(#filter0_dd_0_1)">
<rect x="-20" y="-34.22" width="1187.95" height="174.3" rx="10" fill="white"/>
<g id="div.statcard:margin">
<g id="div.statcard">
<g id="online-uk.svg">
<rect x="2" y="2.78003" width="100.3" height="100.3" rx="50.15" fill="white"/>
<g id="online-uk.svg_2" clip-path="url(#clip0_0_1)">
<g id="Group">
<path id="Vector" d="M78.7019 76.1591L78.4039 72.0318C78.3442 71.1527 77.6439 70.363 76.7797 70.1842L72.5183 69.2902C72.3545 69.2604 72.0713 69.0369 72.0117 68.8879L62.3565 48.0726C62.1032 47.5362 61.5668 46.8359 61.1049 46.4634L55.0108 41.4868C54.9661 41.4421 54.9363 41.308 54.9512 41.2484L60.0023 28.2109C60.196 27.7043 60.1513 27.1977 59.8682 26.7954C59.5851 26.3931 59.1232 26.1696 58.5719 26.1845L49.5574 26.3782L54.0423 20.2543C54.4148 19.7477 54.7277 18.8984 54.7873 18.2875L55.2939 12.7C55.3386 12.1934 55.1747 11.7166 54.8171 11.3888C54.4744 11.061 53.9827 10.8971 53.491 10.9567L51.852 11.1653C50.9431 11.2845 50.213 12.0891 50.1832 12.998L50.064 16.6485C50.064 16.6485 50.064 16.6485 50.0491 16.6634L43.4484 17.1998C42.6438 17.2594 41.8243 17.8554 41.4965 18.6004L38.144 26.3633C38.0993 26.4825 37.846 26.6613 37.7268 26.6911L33.376 27.302C32.5118 27.4212 32.2585 28.0172 32.1989 28.196C32.1393 28.3748 32.0201 29.0155 32.6608 29.5966L36.4156 32.9789C36.5199 33.0683 36.6242 33.3812 36.6093 33.5153L34.9554 44.1241C34.8064 45.0777 35.462 45.9866 36.4156 46.1654L42.6587 47.268L41.2283 52.5128C41.0942 53.0045 41.1836 53.4962 41.4667 53.8836C41.7498 54.271 42.1968 54.5094 42.7034 54.5392L49.2892 54.867C49.3488 54.867 49.468 54.9713 49.4978 55.0309L52.5374 65.9079H46.6817C46.19 65.9079 45.7281 66.1165 45.4152 66.4741C45.1023 66.8317 44.9682 67.3234 45.0427 67.8151L46.2943 75.9654C46.3092 76.0399 46.2198 76.2038 46.1602 76.2336L41.7796 78.6772C41.273 78.9603 40.9899 79.4222 41.0048 79.9288C41.0346 80.4354 41.3624 80.8675 41.8988 81.091L49.8852 84.518L46.3688 85.5312C45.743 85.71 44.9831 86.2166 44.5808 86.7083L39.2168 93.2345C38.6208 93.9646 38.889 94.5308 39.0231 94.7394C39.2317 95.0374 39.5446 95.2013 39.932 95.2013C40.1108 95.2013 40.3045 95.1715 40.4982 95.097L51.3305 91.4465C51.703 91.3273 52.3586 91.1783 52.746 91.1485L69.2552 89.584C69.8661 89.5244 70.7154 89.2115 71.222 88.8539L75.6175 85.6951C76.0794 85.3673 76.3178 84.8756 76.2582 84.3839C76.1986 83.8922 75.841 83.475 75.3195 83.2664L74.0977 82.7896L77.9867 78.3047C78.4486 77.7683 78.7465 76.8594 78.7019 76.1591ZM42.2266 92.5342L46.041 87.8854C46.2049 87.6768 46.6519 87.3937 46.9052 87.3192L52.1351 85.7994C53.0142 85.5461 53.1334 84.9501 53.1483 84.6968C53.1632 84.4435 53.1036 83.8326 52.2692 83.475L43.6272 79.7649L47.0691 77.8428C47.8141 77.4256 48.276 76.4869 48.1419 75.6525L46.935 67.7555H52.9397C53.4612 67.7555 53.9231 67.532 54.2062 67.1446C54.5042 66.7572 54.5936 66.2506 54.4446 65.7589L51.3007 54.4945C51.0623 53.6601 50.2428 53.0045 49.3935 52.9598L43.1355 52.6469L44.5212 47.5362C44.6553 47.0594 44.5808 46.5826 44.3275 46.1803C44.0742 45.778 43.657 45.5098 43.1802 45.4204L36.8179 44.3029L38.4569 33.7835C38.5761 33.0087 38.2483 32.0849 37.6672 31.5634L34.7915 28.9708L37.9652 28.5238C38.7549 28.4195 39.5446 27.8086 39.8575 27.0785L43.1951 19.2709C43.2398 19.1666 43.4633 19.0176 43.5676 19.0027L50.1832 18.4663C51.1219 18.3918 51.8669 17.6021 51.9116 16.6634L52.0308 13.0129C52.0308 12.998 52.0606 12.9682 52.0606 12.9682L53.3718 12.8043L52.895 18.064C52.8652 18.3471 52.6715 18.8686 52.5076 19.0921L47.4118 26.11C47.0691 26.5719 46.9946 27.1232 47.233 27.5702C47.4565 28.0172 47.9482 28.2705 48.5293 28.2556L58.0504 28.047L53.193 40.5481C52.8801 41.3527 53.1483 42.3659 53.8188 42.9172L59.9129 47.8938C60.1662 48.1024 60.5089 48.5494 60.6579 48.8474L70.3131 69.6627C70.626 70.3481 71.4008 70.959 72.1309 71.108L76.3923 72.002C76.437 72.0169 76.5264 72.1063 76.5264 72.151L76.8244 76.2783C76.8393 76.4869 76.7052 76.9041 76.5712 77.0531L72.3544 81.9105C72.0117 82.3128 71.8776 82.8045 71.9968 83.2813C72.1161 83.7581 72.4736 84.1306 72.9653 84.3243L73.8146 84.6521L70.1492 87.2894C69.9108 87.4533 69.3893 87.6619 69.1062 87.6768L52.597 89.2413C52.0606 89.286 51.2709 89.4648 50.7643 89.6287L42.2266 92.5342Z" fill="#2F2A33"/>
<path id="Vector_2" d="M40.5429 59.0539C41.1985 58.443 41.3475 57.3851 40.9005 56.6103L37.399 50.4268C36.9371 49.6073 35.8941 49.2646 35.0299 49.652L31.2155 51.3804C30.6791 51.6188 29.9788 52.1552 29.5914 52.6022L26.1793 56.5507C25.8366 56.9381 25.7025 57.4298 25.8068 57.9066C25.9111 58.3834 26.224 58.7857 26.6859 59.0092L30.098 60.6631C30.6344 60.9164 31.4986 61.125 32.0946 61.125H37.1755C37.8758 61.125 38.7549 60.7823 39.2615 60.2906L40.5429 59.0539ZM37.1755 59.2327H32.0946C31.7668 59.2327 31.2155 59.0986 30.9175 58.9645L27.8481 57.4894L31.0069 53.8389C31.2155 53.5856 31.6923 53.2429 31.9903 53.1088L35.7898 51.3953L39.2913 57.549C39.3062 57.5788 39.2913 57.6831 39.2764 57.7129L37.9801 58.9347C37.8013 59.0688 37.399 59.2327 37.1755 59.2327Z" fill="#2F2A33"/>
<path id="Vector_3" d="M31.1857 25.2458C31.2751 25.7673 31.5731 26.1845 32.0201 26.3931C32.2138 26.4825 32.4224 26.5272 32.6459 26.5272C32.9141 26.5272 33.1823 26.4527 33.4356 26.3186L35.7302 25.0372C36.4603 24.6349 36.9371 23.7409 36.8775 22.9065L36.5944 19.4795C36.5199 18.6153 35.9388 18.3322 35.7749 18.2577C35.5961 18.1981 34.9703 18.0193 34.3445 18.6153L31.6327 21.2079C31.0814 21.7443 30.7685 22.683 30.8877 23.4429L31.1857 25.2458ZM32.929 22.5936L34.8213 20.7758L35.015 23.0704C35.0299 23.1598 34.9107 23.3684 34.8362 23.4131L32.9737 24.4561L32.7502 23.1598C32.7204 23.0108 32.8247 22.6979 32.929 22.5936Z" fill="#2F2A33"/>
</g>
<g id="Group_2">
<path id="Vector_4" d="M46.6817 30.2373C44.1934 30.2373 42.1819 32.2488 42.1819 34.7371C42.1819 35.3182 42.3011 35.8844 42.5097 36.4059C42.5246 36.4357 42.5246 36.4506 42.5395 36.4804C42.614 36.6294 42.7928 36.9721 43.1206 37.4638C43.7464 38.4472 44.8937 39.4306 46.6966 41.0696C48.4846 39.4306 49.6319 38.4472 50.2726 37.4638C50.5855 36.9721 50.7792 36.6145 50.8537 36.4804C50.8686 36.4506 50.8686 36.4357 50.8835 36.4059C51.0921 35.8844 51.2113 35.3331 51.2113 34.7371C51.1815 32.2488 49.17 30.2373 46.6817 30.2373Z" fill="#FF7A01"/>
<path id="Vector_5" d="M46.6817 36.391C47.628 36.391 48.3952 35.6238 48.3952 34.6775C48.3952 33.7311 47.628 32.964 46.6817 32.964C45.7354 32.964 44.9682 33.7311 44.9682 34.6775C44.9682 35.6238 45.7354 36.391 46.6817 36.391Z" fill="white"/>
</g>
<g id="Group_3">
<path id="Vector_6" d="M56.2028 47.4915C53.7145 47.4915 51.703 49.503 51.703 51.9913C51.703 52.5873 51.8222 53.1386 52.0308 53.6601C52.0457 53.6899 52.0457 53.7048 52.0606 53.7346C52.1351 53.8836 52.3139 54.2263 52.6417 54.718C53.2675 55.7014 54.4148 56.6848 56.2177 58.3238C58.0057 56.6848 59.153 55.7014 59.7937 54.718C60.1066 54.2263 60.3003 53.8687 60.3748 53.7346C60.3897 53.7048 60.3897 53.6899 60.4046 53.6601C60.6132 53.1386 60.7324 52.5873 60.7324 51.9913C60.7026 49.503 58.6911 47.4915 56.2028 47.4915Z" fill="#FF7A01"/>
<path id="Vector_7" d="M56.2028 53.6452C57.1492 53.6452 57.9163 52.878 57.9163 51.9317C57.9163 50.9854 57.1492 50.2182 56.2028 50.2182C55.2565 50.2182 54.4893 50.9854 54.4893 51.9317C54.4893 52.878 55.2565 53.6452 56.2028 53.6452Z" fill="white"/>
</g>
<g id="Group_4">
<path id="Vector_8" d="M68.9423 71.4656C66.454 71.4656 64.4425 73.4771 64.4425 75.9654C64.4425 76.5465 64.5617 77.1127 64.7703 77.6342C64.7852 77.664 64.7852 77.6789 64.8001 77.7087C64.8746 77.8577 65.0534 78.2004 65.3812 78.6921C66.007 79.6755 67.1543 80.6589 68.9572 82.2979C70.7452 80.6589 71.8925 79.6755 72.5332 78.6921C72.8461 78.2004 73.0398 77.8428 73.1143 77.7087C73.1292 77.6789 73.1292 77.664 73.1441 77.6342C73.3527 77.1127 73.4719 76.5614 73.4719 75.9654C73.4272 73.4771 71.4157 71.4656 68.9423 71.4656Z" fill="#FF7A01"/>
<path id="Vector_9" d="M68.9423 77.6193C69.8887 77.6193 70.6558 76.8522 70.6558 75.9058C70.6558 74.9595 69.8887 74.1923 68.9423 74.1923C67.996 74.1923 67.2288 74.9595 67.2288 75.9058C67.2288 76.8522 67.996 77.6193 68.9423 77.6193Z" fill="white"/>
</g>
<g id="Group_5">
<path id="Vector_10" d="M35.4173 45.8674C32.929 45.8674 30.9175 47.8789 30.9175 50.3672C30.9175 50.9483 31.0367 51.5145 31.2453 52.036C31.2602 52.0658 31.2602 52.0807 31.2751 52.1105C31.3496 52.2595 31.5284 52.6022 31.8562 53.0939C32.482 54.0773 33.6293 55.0607 35.4322 56.6997C37.2202 55.0607 38.3675 54.0773 39.0082 53.0939C39.3211 52.6022 39.5148 52.2446 39.5893 52.1105C39.6042 52.0807 39.6042 52.0658 39.6191 52.036C39.8277 51.5145 39.9469 50.9632 39.9469 50.3672C39.9171 47.8789 37.9056 45.8674 35.4173 45.8674Z" fill="#FF7A01"/>
<path id="Vector_11" d="M35.4173 52.0211C36.3636 52.0211 37.1308 51.254 37.1308 50.3076C37.1308 49.3613 36.3636 48.5941 35.4173 48.5941C34.471 48.5941 33.7038 49.3613 33.7038 50.3076C33.7038 51.254 34.471 52.0211 35.4173 52.0211Z" fill="white"/>
</g>
<g id="Group_6">
<path id="Vector_12" d="M53.4165 68.7836C50.9282 68.7836 48.9167 70.7951 48.9167 73.2834C48.9167 73.8645 49.0359 74.4307 49.2445 74.9522C49.2594 74.982 49.2594 74.9969 49.2743 75.0267C49.3488 75.1757 49.5276 75.5184 49.8554 76.0101C50.4812 76.9935 51.6285 77.9769 53.4314 79.6159C55.2194 77.9769 56.3667 76.9935 57.0074 76.0101C57.3203 75.5184 57.514 75.1608 57.5885 75.0267C57.6034 74.9969 57.6034 74.982 57.6183 74.9522C57.8269 74.4307 57.9461 73.8794 57.9461 73.2834C57.9163 70.7951 55.9048 68.7836 53.4165 68.7836Z" fill="#FF7A01"/>
<path id="Vector_13" d="M53.4165 74.9373C54.3628 74.9373 55.13 74.1702 55.13 73.2238C55.13 72.2775 54.3628 71.5103 53.4165 71.5103C52.4702 71.5103 51.703 72.2775 51.703 73.2238C51.703 74.1702 52.4702 74.9373 53.4165 74.9373Z" fill="white"/>
</g>
</g>
<rect x="2" y="2.78003" width="100.3" height="100.3" rx="50.15" stroke="#F8F1EA" stroke-width="4"/>
</g>
</g>
</g>
</g>
</g>
</g>
</g>
<defs>
<filter id="filter0_dd_0_1" x="-30" y="-44.22" width="1207.95" height="204.3" filterUnits="userSpaceOnUse" color-interpolation-filters="sRGB">
<feFlood flood-opacity="0" result="BackgroundImageFix"/>
<feColorMatrix in="SourceAlpha" type="matrix" values="0 0 0 0 0 0 0 0 0 0 0 0 0 0 0 0 0 0 127 0" result="hardAlpha"/>
<feMorphology radius="30" operator="erode" in="SourceAlpha" result="effect1_dropShadow_0_1"/>
<feOffset dy="30"/>
<feGaussianBlur stdDeviation="10"/>
<feComposite in2="hardAlpha" operator="out"/>
<feColorMatrix type="matrix" values="0 0 0 0 0 0 0 0 0 0 0 0 0 0 0 0 0 0 0.28 0"/>
<feBlend mode="normal" in2="BackgroundImageFix" result="effect1_dropShadow_0_1"/>
<feColorMatrix in="SourceAlpha" type="matrix" values="0 0 0 0 0 0 0 0 0 0 0 0 0 0 0 0 0 0 127 0" result="hardAlpha"/>
<feOffset/>
<feGaussianBlur stdDeviation="5"/>
<feComposite in2="hardAlpha" operator="out"/>
<feColorMatrix type="matrix" values="0 0 0 0 0 0 0 0 0 0 0 0 0 0 0 0 0 0 0.1 0"/>
<feBlend mode="normal" in2="effect1_dropShadow_0_1" result="effect2_dropShadow_0_1"/>
<feBlend mode="normal" in="SourceGraphic" in2="effect2_dropShadow_0_1" result="shape"/>
</filter>
<clipPath id="clip0_0_1">
<rect width="104.3" height="104.3" fill="white" transform="translate(0 0.780029)"/>
</clipPath>
</defs>
</svg>
